# xmcd CD database file
#
# Track frame offsets:
#        150
#        12727
#        25426
#        39054
#        50919
#        62488
#        73336
#        86433
#        99273
#        111742
#        125039
#        136734
#        147592
#        159023
#        171373
#        183126
#        195170
#        207531
#        218385
#        231556
#        245151
#        256292
#        267333
#        278850
#        292424
#
# Disc length: 4080 seconds
#
# Revision: 0
# Processed by: cddbd v1.5.2PL0 Copyright (c) Steve Scherf et al.
# Submitted via: CUERipper 2.1.6
#
DISCID=860fee19
DTITLE=Hank Williams - Best of the singles 1947-1958
DYEAR=2018
DGENRE=Country
TTITLE0=I'm so lonesome I could cry
TTITLE1=I just don't like this kind of livin'
TTITLE2=Beyond the sunset
TTITLE3=Long gone lonesome blues
TTITLE4=My son calls another man daddy
TTITLE5=Why don't you love me
TTITLE6=A house without love
TTITLE7=Everything's okay
TTITLE8=They'll never take her love from me
TTITLE9=Help me understand
TTITLE10=I heard my mother praying for me
TTITLE11=Moanin' the blues
TTITLE12=Nobody's lonesome for me
TTITLE13=Cold, cold heart
TTITLE14=Dear John
TTITLE15=Just waitin'
TTITLE16=Howlin' at the moon
TTITLE17=I can't help it (if I'm still in love with you)
TTITLE18=Hey, good lookin'
TTITLE19=I dreamed about mama last night
TTITLE20=Crazy heart
TTITLE21=(I heard that) Lonesome whistle
TTITLE22=Baby we're really in love
TTITLE23=I'd still want you
TTITLE24=Ramblin' man
EXTD=
EXTT0=
EXTT1=
EXTT2=
EXTT3=
EXTT4=
EXTT5=
EXTT6=
EXTT7=
EXTT8=
EXTT9=
EXTT10=
EXTT11=
EXTT12=
EXTT13=
EXTT14=
EXTT15=
EXTT16=
EXTT17=
EXTT18=
EXTT19=
EXTT20=
EXTT21=
EXTT22=
EXTT23=
EXTT24=
PLAYORDER=
